<svg width="32" height="32" viewBox="0 0 32 32" fill="none" xmlns="http://www.w3.org/2000/svg">
<rect width="32" height="32" rx="16" fill="#024653"/>
<path opacity="0.82" d="M16.7409 22.3739C16.8251 22.4077 16.906 22.4505 16.9853 22.4951C16.9983 22.5022 17.0096 22.5094 17.0226 22.5165C17.1003 22.5628 17.1764 22.6128 17.2476 22.668C17.2541 22.6734 17.2622 22.6787 17.2686 22.6841C17.4224 22.8035 17.5633 22.9426 17.6863 23.0994C18.0408 23.5487 18.2562 24.1317 18.2562 24.7734C18.2562 25.2619 18.1299 25.7165 17.9146 26.1051C20.1875 26.435 25.5299 26.2353 27.6345 17.7815C20.7703 16.0558 17.8773 19.8424 16.7409 22.3739Z" fill="#05D16E"/>
<path opacity="0.82" d="M25.0292 7.96094C15.0179 11.2804 15.0308 19.0496 15.5051 22.2567C15.6428 22.2282 15.7852 22.2122 15.9293 22.2122C16.1511 22.2122 16.3648 22.2496 16.5672 22.3138C16.6254 22.3316 16.6837 22.353 16.7404 22.3762C17.1095 22.5277 17.4333 22.7791 17.6874 23.1018C17.9999 23.4975 18.2039 24.0003 18.2476 24.5547C20.5691 23.6918 27.8105 19.9873 25.0308 7.9645L25.0292 7.96094Z" fill="#05D16E"/>
<path opacity="0.82" d="M15.2382 22.3258C15.4568 22.2509 15.6899 22.2099 15.9295 22.2099C16.1513 22.2099 16.365 22.2473 16.5674 22.3115C16.6256 22.3293 16.6839 22.3507 16.7406 22.3739C17.1097 22.5254 17.4335 22.7768 17.6876 23.0995C19.4701 20.7712 23.4315 13.8471 15.9603 5.25781C8.52948 13.8007 12.4084 20.6963 14.2038 23.0603C14.479 22.7233 14.8351 22.4648 15.2382 22.3258Z" fill="#05D16E"/>
<path opacity="0.82" d="M15.2385 22.3263C15.4571 22.2514 15.6902 22.2104 15.9298 22.2104C16.1516 22.2104 16.3653 22.2478 16.5677 22.312C17.0501 19.1405 17.1246 11.3 7.05171 7.96094C4.35138 19.6397 11.1038 23.469 13.6212 24.4691C13.7297 23.4547 14.3757 22.6222 15.2369 22.3263H15.2385Z" fill="#05D16E"/>
<path opacity="0.82" d="M15.2384 22.3258C14.0874 19.7944 11.1879 16.0666 4.36581 17.7816C6.43154 26.0767 11.6153 26.4226 13.9562 26.1231C13.7344 25.7309 13.6033 25.2692 13.6033 24.7735C13.6033 23.6237 14.2913 22.6521 15.2368 22.3276L15.2384 22.3258Z" fill="#05D16E"/>
</svg>
